# xmcd CD database file
#
# Track frame offsets:
#	150
#	18537
#	36286
#	53919
#	71761
#	88531
#	103723
#	123540
#	141643
#	158294
#	173974
#	188422
#	212344
#
# Disc length: 3071 seconds
#
# Revision: 0
# Processed by: cddbd v1.5.2PL0 Copyright (c) Steve Scherf et al.
# Submitted via: jetAudio 7
#
DISCID=b00bfd0d
DTITLE=Home At Last - Billy Ray Cyrus
DYEAR=1900
DGENRE=Country
TTITLE0=Ready, Set, Don't Go
TTITLE1=The Beginning
TTITLE2=The Buffalo
TTITLE3=Flying By
TTITLE4=Brown Eyed Girl
TTITLE5=Don't Give Up On Me
TTITLE6=You've Got A Friend
TTITLE7=You Can't Lose Me
TTITLE8=I Can't Live Without Your Love
TTITLE9=My Everything
TTITLE10=Put A Little Love In Your Heart
TTITLE11=Over The Rainbow
TTITLE12=Stand (Bonus Track)
EXTD=
EXTT0=
EXTT1=
EXTT2=
EXTT3=
EXTT4=
EXTT5=
EXTT6=
EXTT7=
EXTT8=
EXTT9=
EXTT10=
EXTT11=
EXTT12=
PLAYORDER=
